:SAMPLES-PER-SECOND 30
:FULLY-SPECIFIED
:DEGREES
293
root  10.3149 40.6831 -6.82852 -134.254 -86.2938 135.637
RightUpLeg  -1.80706 -12.5765 -14.8239
RightLeg  2.11806 -7.68606 2.74971
RightFoot  3.86892 -0.826785 6.38441
RightToes  0.00048216 0.542163 -0.142577
Spine  6.78805 -1.53872 -4.47693
Spine1  14.24 -2.06199 0.641933
HEad  -27.4928 7.9965 -0.924386
LeftShoulder1  11.0818 -16.0761 -49.4158
LeftArm  0.729351 -6.47832 -21.553
LeftForeArm  29.5476 -24.9343 -3.76967
LeftHand  -0.25398 0.0180481 5.50724
RightShoulder  6.73259 11.1158 39.917
RightArm  7.5789 10.6064 32.6683
RightForeArm  14.5803 19.3084 4.95912
RightHand  -1.08198 5.72003 -11.6614
LeftUpLeg  -0.85539 5.66018 4.96846
LeftLeg  1.32864 11.1096 -3.30579
LeftFoot  0.641499 0.30323 -2.92681
LeftToes  1.06241e-005 4.65855e-005 -8.18508e-006
294
root  10.0923 40.6821 -6.80426 -137.863 -86.1019 138.692
RightUpLeg  -0.934943 -12.5143 -14.9955
RightLeg  2.13311 -7.32442 2.63956
RightFoot  3.58065 -0.828147 6.49871
RightToes  0.00048216 0.542163 -0.142577
Spine  5.30789 -1.58398 -4.71942
Spine1  14.0965 -2.1446 0.938482
HEad  -27.0995 9.21209 -0.347654
LeftShoulder1  10.9248 -15.8327 -49.3291
LeftArm  -0.0155728 -4.91316 -21.7769
LeftForeArm  30.5375 -26.3253 -4.02438
LeftHand  -0.25398 0.0180481 5.50724
RightShoulder  6.69791 10.9585 40.1649
RightArm  6.17285 8.19359 32.4512
RightForeArm  13.7418 20.221 4.64564
RightHand  -1.10307 5.81201 -11.7887
LeftUpLeg  0.0736113 5.74814 5.03122
LeftLeg  1.53987 11.207 -3.25649
LeftFoot  0.19943 0.2976 -2.95779
LeftToes  1.06241e-005 4.65855e-005 -8.18508e-006
295
root  9.90148 40.6769 -6.7713 -140.331 -85.9977 140.685
RightUpLeg  -0.132335 -12.4935 -15.1702
RightLeg  2.08888 -7.02975 2.59063
RightFoot  3.3429 -0.833271 6.62412
RightToes  0.00048216 0.542163 -0.142577
Spine  3.98095 -1.68605 -4.76636
Spine1  13.9235 -2.24498 1.10304
HEad  -26.4938 10.162 0.13182
LeftShoulder1  10.7759 -15.6313 -49.1693
LeftArm  -0.461943 -3.37128 -22.0885
LeftForeArm  31.3366 -27.2694 -4.18664
LeftHand  -0.25398 0.0180481 5.50724
RightShoulder  6.66535 10.8147 40.3899
RightArm  5.4571 5.95553 32.2479
RightForeArm  13.2123 20.8347 4.494
RightHand  -1.10278 5.71245 -11.8841
LeftUpLeg  0.865785 5.76748 5.05784
LeftLeg  1.70784 11.2719 -3.15081
LeftFoot  -0.24061 0.298735 -3.05989
LeftToes  1.06241e-005 4.65855e-005 -8.18508e-006
296
root  9.73376 40.6661 -6.73684 -142.77 -85.8422 142.667
RightUpLeg  0.585469 -12.4857 -15.3583
RightLeg  2.07455 -6.65018 2.5276
RightFoot  3.09266 -0.848082 6.88186
RightToes  0.00048216 0.542163 -0.142577
Spine  2.6542 -1.7367 -4.77562
Spine1  14.0421 -2.3027 1.28046
HEad  -26.0142 10.9088 0.279449
LeftShoulder1  10.6781 -15.4539 -49.1795
LeftArm  -0.555627 -2.04927 -22.2709
LeftForeArm  31.8349 -27.7191 -4.25888
LeftHand  -0.25398 0.0180481 5.50724
RightShoulder  6.57851 10.6072 40.4554
RightArm  5.15347 4.12435 32.1911
RightForeArm  13.3095 20.9267 4.46175
RightHand  -1.1083 5.69832 -11.9552
LeftUpLeg  1.63017 5.80831 5.0724
LeftLeg  1.83773 11.373 -3.08943
LeftFoot  -0.664678 0.296357 -3.12901
LeftToes  1.06241e-005 4.65855e-005 -8.18508e-006
297
root  9.58489 40.6544 -6.70171 -144.78 -85.6248 144.218
RightUpLeg  1.25364 -12.4746 -15.5708
RightLeg  2.07267 -6.23779 2.40955
RightFoot  2.84124 -0.864875 7.1605
RightToes  0.00048216 0.542163 -0.142577
Spine  1.40758 -1.7341 -4.81947
Spine1  14.3432 -2.32541 1.50432
HEad  -25.7036 11.6009 0.0721331
LeftShoulder1  10.5848 -15.2667 -49.2356
LeftArm  -0.417024 -0.796346 -22.401
LeftForeArm  32.1269 -27.7665 -4.25403
LeftHand  -0.25398 0.0180481 5.50724
RightShoulder  6.44496 10.3557 40.3446
RightArm  5.05026 2.49932 32.2988
RightForeArm  14.107 20.7044 4.46286
RightHand  -1.15232 5.9994 -12.1039
LeftUpLeg  2.42106 5.88186 5.06839
LeftLeg  1.87431 11.4818 -3.12359
LeftFoot  -1.02405 0.288535 -3.12811
LeftToes  1.06241e-005 4.65855e-005 -8.18508e-006
298
root  9.46217 40.646 -6.66313 -145.656 -85.4537 144.659
RightUpLeg  1.88453 -12.4645 -15.8092
RightLeg  2.05151 -5.91851 2.28556
RightFoot  2.63253 -0.872311 7.29184
RightToes  0.00048216 0.542163 -0.142577
Spine  0.421632 -1.75482 -4.86881
Spine1  14.5192 -2.37993 1.73727
HEad  -25.4379 12.3042 -0.383857
LeftShoulder1  10.4467 -15.0475 -49.1678
LeftArm  -0.367615 0.615643 -22.612
LeftForeArm  32.3854 -27.503 -4.18295
LeftHand  -0.25398 0.0180481 5.50724
RightShoulder  6.31616 10.1491 40.118
RightArm  4.87113 0.7315 32.5071
RightForeArm  15.3377 20.473 4.44464
RightHand  -1.22288 6.44931 -12.3586
LeftUpLeg  3.16563 5.91786 5.01597
LeftLeg  1.82178 11.5463 -3.1815
LeftFoot  -1.29687 0.281617 -3.11617
LeftToes  1.06241e-005 4.65855e-005 -8.18508e-006
299
root  9.37304 40.6394 -6.62249 -145.525 -85.3597 144.203
RightUpLeg  2.35909 -12.5028 -16.0582
RightLeg  2.0643 -5.69777 2.20684
RightFoot  2.47036 -0.873994 7.34266
RightToes  0.00048216 0.542163 -0.142577
Spine  -0.337144 -1.83571 -4.99527
Spine1  14.4929 -2.53359 2.07742
HEad  -25.2627 13.1102 -1.15653
LeftShoulder1  10.2998 -14.7899 -49.1593
LeftArm  -0.528977 2.22775 -22.7171
LeftForeArm  32.5935 -27.0205 -4.06737
LeftHand  -0.25398 0.0180481 5.50724
RightShoulder  6.18917 9.97912 39.7779
RightArm  4.42736 -1.14692 32.8052
RightForeArm  16.5196 20.1916 4.43725
RightHand  -1.29608 6.78129 -12.7334
LeftUpLeg  3.71154 5.87386 4.89437
LeftLeg  1.75885 11.6095 -3.18674
LeftFoot  -1.49532 0.278653 -3.13205
LeftToes  1.06241e-005 4.65855e-005 -8.18508e-006
300
root  9.31528 40.6313 -6.5822 -144.599 -85.3164 143.138
RightUpLeg  2.57855 -12.5979 -16.302
RightLeg  2.13675 -5.53663 2.18105
RightFoot  2.33816 -0.883658 7.49007
RightToes  0.00048216 0.542163 -0.142577
Spine  -0.991864 -1.97643 -5.26137
Spine1  14.2838 -2.79205 2.56088
HEad  -25.3052 14.191 -2.34742
LeftShoulder1  10.1897 -14.5168 -49.3706
LeftArm  -0.711332 4.05151 -22.4975
LeftForeArm  32.6092 -26.4215 -3.93779
LeftHand  -0.25398 0.0180481 5.50724
RightShoulder  6.00993 9.72079 39.3413
RightArm  3.71845 -2.88516 33.2015
RightForeArm  17.4594 19.6515 4.50678
RightHand  -1.38952 7.05611 -13.3287
LeftUpLeg  3.96075 5.78186 4.7172
LeftLeg  1.74358 11.6911 -3.15699
LeftFoot  -1.6499 0.275599 -3.13728
LeftToes  1.06241e-005 4.65855e-005 -8.18508e-006
301
root  9.28362 40.6213 -6.54122 -142.894 -85.3424 141.409
RightUpLeg  2.67377 -12.7161 -16.5354
RightLeg  2.18753 -5.45486 2.18985
RightFoot  2.24459 -0.906894 7.73082
RightToes  0.00048216 0.542163 -0.142577
Spine  -1.42512 -2.16421 -5.49291
Spine1  13.7892 -3.06383 2.92927
HEad  -25.4748 15.562 -3.76303
LeftShoulder1  10.0916 -14.2819 -49.5398
LeftArm  -0.711565 6.13849 -22.1321
LeftForeArm  32.2351 -25.6396 -3.78909
LeftHand  -0.25398 0.0180481 5.50724
RightShoulder  5.791 9.35057 38.9659
RightArm  2.87572 -4.51 33.565
RightForeArm  18.2477 18.9623 4.63105
RightHand  -1.52205 7.44348 -14.1324
LeftUpLeg  4.00662 5.70617 4.54232
LeftLeg  1.77418 11.6841 -3.15097
LeftFoot  -1.79243 0.268752 -3.08874
LeftToes  1.06241e-005 4.65855e-005 -8.18508e-006
302
root  9.27775 40.6116 -6.5 -141.012 -85.4202 139.422
RightUpLeg  2.85481 -12.7975 -16.7438
RightLeg  2.17955 -5.43988 2.18568
RightFoot  2.20222 -0.927665 7.92693
RightToes  0.00048216 0.542163 -0.142577
Spine  -1.42262 -2.33145 -5.48858
Spine1  13.045 -3.2309 2.97683
HEad  -25.5427 16.9373 -5.08997
LeftShoulder1  9.98477 -14.1287 -49.4413
LeftArm  -0.458691 8.31406 -21.8948
LeftForeArm  31.171 -24.4081 -3.59024
LeftHand  -0.25398 0.0180481 5.50724
RightShoulder  5.62576 9.03543 38.7884
RightArm  2.09262 -6.2058 33.6829
RightForeArm  18.7487 18.4433 4.72687
RightHand  -1.65983 7.86918 -14.8938
LeftUpLeg  4.09365 5.68459 4.4295
LeftLeg  1.80604 11.537 -3.18947
LeftFoot  -1.92044 0.260008 -3.01519
LeftToes  1.06241e-005 4.65855e-005 -8.18508e-006
303
root  9.29813 40.6031 -6.46289 -139.907 -85.46 138.06
RightUpLeg  3.10609 -12.8176 -16.9096
RightLeg  2.21221 -5.4051 2.12565
RightFoot  2.18854 -0.940253 8.03992
RightToes  0.00048216 0.542163 -0.142577
Spine  -1.07881 -2.39569 -5.33759
Spine1  12.3798 -3.27114 2.88642
HEad  -25.4755 17.9836 -6.27366
LeftShoulder1  9.91832 -14.056 -49.3158
LeftArm  -0.175816 10.1844 -21.6919
LeftForeArm  29.5987 -22.579 -3.48031
LeftHand  -0.25398 0.0180481 5.50724
RightShoulder  5.55411 8.89578 38.7185
RightArm  1.4303 -7.84417 33.5302
RightForeArm  18.7909 18.0621 4.81048
RightHand  -1.76275 8.20598 -15.4089
LeftUpLeg  4.33176 5.69347 4.36997
LeftLeg  1.81036 11.3805 -3.24005
LeftFoot  -2.01633 0.255717 -2.9913
LeftToes  1.06241e-005 4.65855e-005 -8.18508e-006
304
root  9.34228 40.5936 -6.43059 -139.289 -85.4617 137.181
RightUpLeg  3.2464 -12.8346 -17.0445
RightLeg  2.36267 -5.33335 2.05032
RightFoot  2.15364 -0.949918 8.14021
RightToes  0.00048216 0.542163 -0.142577
Spine  -0.679014 -2.37895 -5.22735
Spine1  11.9658 -3.26037 2.87185
HEad  -25.4711 18.6163 -7.41424
LeftShoulder1  9.91944 -14.0307 -49.3921
LeftArm  -0.522056 11.5897 -21.3017
LeftForeArm  28.7269 -20.37 -3.79468
LeftHand  -0.25398 0.0180481 5.50724
RightShoulder  5.5138 8.84007 38.5992
RightArm  0.699918 -9.09311 33.3041
RightForeArm  18.8001 17.4437 4.97627
RightHand  -1.83353 8.48364 -15.6987
LeftUpLeg  4.51217 5.67997 4.30388
LeftLeg  1.8847 11.2979 -3.24091
LeftFoot  -2.12945 0.256797 -3.04154
LeftToes  1.06241e-005 4.65855e-005 -8.18508e-006
305
root  9.4112 40.5797 -6.39939 -137.775 -85.5367 135.546
RightUpLeg  3.20159 -12.921 -17.1771
RightLeg  2.59924 -5.30946 2.0407
RightFoot  2.0553 -0.955553 8.24238
RightToes  0.00048216 0.542163 -0.142577
Spine  -0.222994 -2.37775 -5.12367
Spine1  11.5089 -3.25231 2.80465
HEad  -25.6784 18.9275 -8.46983
LeftShoulder1  9.92991 -14.0273 -49.4538
LeftArm  -1.31949 12.7632 -20.8281
LeftForeArm  28.9638 -18.2394 -4.34174
LeftHand  -0.25398 0.0180481 5.50724
RightShoulder  5.45864 8.74897 38.4861
RightArm  -0.178342 -9.89706 33.1099
RightForeArm  19.3957 16.4969 5.21751
RightHand  -1.87757 8.70504 -15.8214
LeftUpLeg  4.36282 5.64826 4.21886
LeftLeg  2.21126 11.1609 -3.17199
LeftFoot  -2.33739 0.258383 -3.09293
LeftToes  1.06241e-005 4.65855e-005 -8.18508e-006
306
root  9.51069 40.5622 -6.3714 -135.345 -85.6714 133.103
RightUpLeg  2.99578 -13.0566 -17.298
RightLeg  2.91429 -5.34419 2.07273
RightFoot  1.90084 -0.950136 8.28343
RightToes  0.00048216 0.542163 -0.142577
Spine  0.529978 -2.39624 -4.96274
Spine1  10.7098 -3.22063 2.57936
HEad  -26.061 19.0011 -9.37008
LeftShoulder1  9.90634 -14.0325 -49.322
LeftArm  -2.14686 13.9062 -20.4335
LeftForeArm  29.8752 -16.4766 -4.83816
LeftHand  -0.25398 0.0180481 5.50724
RightShoulder  5.41979 8.65845 38.4975
RightArm  -0.911351 -10.4441 32.8718
RightForeArm  20.465 15.5486 5.43768
RightHand  -1.89458 8.82294 -15.8336
LeftUpLeg  3.92457 5.66982 4.1646
LeftLeg  2.76326 10.8919 -3.12407
LeftFoot  -2.57782 0.254195 -3.05457
LeftToes  1.06241e-005 4.65855e-005 -8.18508e-006
